<svg xmlns="http://www.w3.org/2000/svg" viewBox="0 0 280.9 117.7" enable-background="new 0 0 280.9 117.7"><g><path fill="#fff" d="M137.6 4.7l29.4 108.3 109.6-33.5z"/><path fill="#00A7B8" d="M24 41.6c0 6-4.3 11.7-11.9 11.7-3.7 0-7.8-1.5-7.8-3 0-1.4.6-4.3 1.1-6.7.3-1.2.4-2 1.2-2 .7 0 .9.5.9 1.9v2.4c0 3.7 1.4 6.2 4.6 6.2 4.2 0 6.7-3.2 6.7-7.2 0-6.7-8.8-10.7-8.8-18.1 0-5.8 5.1-9.5 10.4-9.5 3.7 0 7.9 1.3 7.9 2.2 0 1-.3 1.7-1.6 7-.2.8-.4 1-.9 1s-.9-.2-.9-2.3c0-5.4-1.5-6.8-4.4-6.8-2.6 0-5.7 2.1-5.7 5.9-.1 4.7 9.2 11.3 9.2 17.3m15.1-1.1c3.7-1.3 6.7-3.8 6.7-8.3 0-3.1-1.8-5.5-5.4-5.5-7.2 0-13.9 9.1-13.9 18.1 0 4.6 2.4 8.4 6.3 8.4 6.5 0 10.3-8.7 10.3-9.7 0-.4-.2-.5-.5-.5-.5 0-.3.6-2.2 3.2-1.5 2.2-3.5 4-5.7 4-1.9 0-3.1-1.8-3.1-5.4.1-2.1.1-2.9.4-3 1 0 4.6-.4 7.1-1.3m.6-12.3c1 0 1.8.8 1.8 2.4 0 4.1-1.8 9-9.5 9.8.5-2.6 1.7-5.9 3.4-8.9 1.6-2.6 3-3.3 4.3-3.3m15.1 11.8c1.3-4.5 2.8-8.9 2.8-11.3 0-1.3-.6-1.9-2-1.9-4.1 0-8.3 7.7-8.3 8.6 0 .4.2.6.5.6.2 0 .6-.5 2.2-3 .9-1.4 2-2.7 2.5-2.7.4 0 .5.2.5.5 0 2.1-6.4 20.6-6.4 21.3 0 .2.2.3.7.3h2.9c1 0 1-.3 1.2-.9 2.6-7.3 8.6-20.2 10.3-20.2.3 0 .4.1.4.4 0 .5-.2 1.2-.2 1.9 0 .9.5 1.5 1.7 1.5 2 0 3.4-2.7 3.4-5.5 0-2.1-.8-2.8-2.1-2.8-3.7 0-7.1 6.8-10.1 13.4v-.2zm17.1 13.3c8.5 0 16.4-15.4 16.4-22.9 0-2.8-.9-3.6-2.1-3.6-1.2 0-2.4 1-2.4 3 0 2.6 1.6 3.2 1.6 4.8.1 5.3-6.7 16.4-11.4 16.4-1.1 0-1.6-.8-1.6-1.8 0-3.8 6.1-16.1 6.1-19.4 0-1.8-.7-3-2.5-3-4.5 0-8.8 8.3-8.8 8.8 0 .4.1.7.4.7.5 0 .5-.9 2.4-3.3 1.1-1.5 2.5-3 3.1-3 .4 0 .6.4.6 1 0 1.1-5.6 13.2-5.6 18.2.1 2.5 1.2 4.1 3.8 4.1m19.4-8.1c-.7 2-1.2 4.4-1.2 5.6 0 1.7.7 2.5 1.8 2.5 4.6 0 9.1-9 9.1-10.2 0-.3-.2-.4-.5-.4-.4 0-.4.7-2.3 3.7-1.9 3.1-2.8 3.4-3.2 3.4-.3 0-.4-.2-.4-.7 0-2.2 6-17 6-20 0-1.7-.9-2.4-2-2.4-4.2 0-8.7 7.4-8.7 8.9 0 .4.2.5.5.5.6 0 .6-.9 2.4-3.4 1.3-1.9 2-2.5 2.6-2.5.3 0 .5.3.5.7 0 .5-.4 1.5-.8 2.7l-3.8 11.6zm10.3-28.5c-1.6 0-3.3 2.2-3.3 4.8 0 1.3.7 2.4 2 2.4 1.5 0 3.1-1.9 3.1-4.3 0-2-.7-2.9-1.8-2.9m16.1 10.1c-8.2 0-14.8 9.6-14.8 17.5 0 5.6 2.4 9 6.7 9 6.8 0 10.7-8.2 10.7-10 0-.3-.2-.5-.6-.5-.8 0-.8 2.2-3.4 5-1.5 1.6-3.1 2.5-4.6 2.5-2.2 0-3.8-1.6-3.8-5.1 0-6.4 4.2-16.9 8.1-16.9 1.3 0 1.8 1.1 1.8 3.4 0 1.9 1 2.7 2.1 2.7 1.8 0 3-1.3 3-3.4.1-2.4-1.5-4.2-5.2-4.2m17.1 13.7c3.7-1.3 6.7-3.8 6.7-8.3 0-3.1-1.8-5.5-5.4-5.5-7.2 0-13.9 9.1-13.9 18.1 0 4.6 2.4 8.4 6.3 8.4 6.5 0 10.3-8.7 10.3-9.7 0-.4-.2-.5-.5-.5-.5 0-.3.6-2.2 3.2-1.5 2.2-3.5 4-5.7 4-1.9 0-3.1-1.8-3.1-5.4.1-2.1.1-2.9.4-3 1 0 4.6-.4 7.1-1.3m.6-12.3c1 0 1.8.8 1.8 2.4 0 4.1-1.8 9-9.5 9.8.5-2.6 1.7-5.9 3.4-8.9 1.6-2.6 3-3.3 4.3-3.3m33.9-1.7c-.2-.2-.4-.2-.6-.2h-1.4c-.5 0-1.4.1-3 .1h-.9c-.5 0-.7.4-1.5 1.8-.3.6-.7 1.4-1.3 2.4 0 0-6 10.6-7.6 13.4v-17c0-.2 0-.4-.2-.6-.2-.2-.4-.2-.7-.2h-1.7999999999999998c-.5 0-1.2 0-1.8-.1h-.2c-.6 0-1.2-.1-1.7-.1-.9 0-1 .5-1 .8 0 .7.5.8 1.6.9.8.1.8.3.8.5 0 .3-.7 2.4-1.7 5.1-1.3 3.7-3.2 9.4-5.4 16.3-.3.9-.7 1-1.8 1.2h-.2c-.9.2-1.2.3-1.2.9 0 .2.1.4.2.6.1.1.2.2.5.2.5 0 1 0 1.5-.1.5 0 1-.1 1.4-.1.9 0 1.5.1 2.1.1.4 0 .8.1 1.1.1.4 0 .6-.1.8-.2.1-.1.2-.3.2-.5 0-.8-.6-.9-1.5-1-.9-.1-1.1-.3-1.1-.9 0-1.7 2.3-8.8 5.8-18.9v20.1c0 .4.1.7.2.8.1.1.3.2.5.2.5 0 .8-.5 2.4-3.5 1.6-2.9 4.4-8.2 10-17.6l-4.5 17.8c-.3 1.3-.8 1.7-2.1 2-.6.1-1.4.2-1.4 1 0 .2.1.3.2.5.1.1.3.3.7.3h.8c.7 0 1.8-.1 3.7-.1 1.4 0 2.2.1 2.7.1h.6c.4 0 .6-.1.7-.3.1-.1.2-.3.2-.5 0-.6-.6-.7-1.5-.9-.7-.2-.8-.3-.8-.7 0-.9 3.1-13.4 4.4-18.7l.6-2.5c.2-.7.6-1.2 1-1.2 1.3-.2 1.8-.4 1.8-1 .5 0 .5-.2.4-.3m17.3 24.7c.7.2 1 .3 1 .9 0 .2-.1.4-.2.5-.2.2-.5.3-.9.3h-.6c-.5 0-1.2-.1-2.6-.1-2.2 0-3.1.1-3.5.1h-.3c-.6 0-.9-.1-1.1-.3-.1-.1-.2-.3-.2-.5 0-.7.6-.9 1.1-1 1.9-.4 1.9-.7 1.9-1.4 0-2.6 0-4.4-.1-5.5v-.9h-6.5c-.2.3-.4.7-.6 1.1-1 1.6-2.6 4.3-2.6 5.4 0 .4.3.9 2.4 1.3.4.1 1.1.2 1.1.9 0 .1 0 .4-.2.5-.2.2-.5.2-1 .2h-.5c-.4 0-1.2-.1-3.1-.1-.6 0-1.3 0-1.9.1l-1.9.1c-.3 0-.5-.1-.6-.2-.1-.1-.2-.3-.2-.6 0-.5.3-.8.8-.9 1.6-.2 1.9-.7 3.8-3.8.5-.9 1.2-2 2-3.3 11.3-18.1 11.4-18.1 12.2-18.1.2 0 .5 0 .7.2.2.2.3.6.3 1.3l.1 10.7c0 4.8.1 9.8.1 11.7 0 1.1.4 1.2.9 1.3l.2.1m-5.5-18.5c-2 3.1-3.7 5.8-5.4 8.6h5.4v-8.6zm26.6-5.5c-.8-.8-3.6-1.5-5.9-1.5-4 0-8 2.8-8 7.4 0 2.9 1.8 5.1 3.5 7.3 1.6 2 3.1 3.9 3.1 6.3 0 3.1-1.9 5.1-4.8 5.1-.9 0-1.6-.3-2.1-.8-.7-.7-1.1-2-1.1-3.6v-1.8c0-.8-.1-1.2-.3-1.4-.1-.1-.3-.2-.6-.2-.8 0-.9.7-1.1 1.6-.4 1.9-.8 4-.8 5.1 0 .3.1.5.4.8.9.9 3.4 1.7 5.7 1.7 2.6 0 4.9-.9 6.6-2.6 1.7-1.7 2.6-4 2.6-6.4 0-2.5-2-5-3.9-7.4-1.6-2-3.1-4-3.1-5.6 0-1.4.6-2.4 1.2-2.9.8-.8 1.9-1.2 2.9-1.2s1.6.2 2.1.7c.7.7 1 2 1 4.2 0 1 .1 1.5.4 1.8.2.2.4.2.6.2.6 0 .8-.4.9-1l.8-3.2c.3-1.2.4-1.6.4-2.1-.2-.1-.3-.3-.5-.5m36.7-.7c-.1-.1-.3-.2-.6-.2-1.5 0-3.1 0-4.6.1-1.3 0-2.5.1-3.5.1s-2.3-.1-3.4-.1c-.8 0-1.5-.1-1.8-.1-1.1 0-1.2.5-1.2.8 0 .7.9.9 1.3.9.7.1.9.2.9.5 0 1-4 14.6-6.1 21.7-.2.6-.7.8-1.5.9h-.1c-.7.1-1.5.2-1.5 1 0 .2.1.3.2.4.2.2.5.3 1 .3h.7c.9 0 2.9-.1 7.2-.1 4.5 0 5.9.1 6.5.1h.4c.6 0 .7-.6 1.1-2 .1-.4.2-.9.4-1.5l.1-.2c.5-1.8 1-3.3 1-3.8 0-.2-.1-.3-.2-.4-.1-.1-.3-.2-.6-.2-.7 0-.9.7-1.3 1.6-.7 1.9-1.8 4.7-6.9 4.7-.8 0-1.6 0-1.8-.2v-.2c0-.9 2.4-9.4 2.9-10.9h2.5c.8 0 1.2.1 1.4.3.1.1.2.4.2.8 0 .6-.1 1.1-.1 1.5 0 .3-.1.6-.1.8 0 .4.1.7.3.9.1.1.3.2.4.2.8 0 .9-.8 1.2-1.9l.2-.9c.6-2.6 1.2-4.3 1.5-5.3.2-.6.3-.9.3-1.2 0-.2-.1-.4-.2-.5-.1-.1-.3-.2-.4-.2-.8 0-1.1.7-1.3 1.4-.4 1-.8 2.2-2.9 2.2h-2.6c.8-2.9 2-6.8 2.9-9.6h2.5c1.2 0 1.8.1 2.1.4.3.3.3.7.3 1.5v3.1c0 .2.1.4.2.5.1.1.3.2.4.2.4 0 .7-.2.8-.6.1-.2.3-1 .6-1.9.7-2.2 1.3-3.9 1.3-4.4.1-.2 0-.4-.1-.5m20.5 5.2c0 3.3-2 5.5-3.6 6.7-1.7 1.2-3 1.7-4.5 2.1.3.2.5.6.7 1.3l1.8 6.7.1.4c.3 1.4.5 2.1.8 2.3.2.1.6.2.9.3.5.1 1.1.2 1.1.6 0 .1 0 .3-.2.5s-.4.2-.8.2c-.5 0-.9 0-1.4-.1l-1.4-.1c-.2 0-.5 0-.8.1-.4 0-.8.1-1.1.1-.6 0-.8-.5-.9-1.2l-2-8.4c-.4-1.6-.6-1.7-1.3-1.7-.6 0-.7 0-1 1.1l-1.8 6c-.2.6-.4 1.4-.4 1.7 0 .4.3.6.9.7.8.1 1.3.5 1.3 1 0 .2-.1.4-.2.5-.1.1-.2.2-.5.2h-.4c-.6 0-1.6-.1-4.1-.1-1.8 0-2.7.1-3.3.1h-.7c-.4 0-.6-.1-.7-.2-.1-.1-.2-.3-.2-.5 0-.8 1-1 1.7-1h.2c1.1-.1 1.4-.2 1.9-1.8 2.2-7.4 3.6-12 4.6-15.1 1.2-3.7 1.5-4.9 1.5-5.6 0-.5-.5-.7-1.3-.8-.6-.1-1.2-.2-1.2-.8 0-.3.3-.7.7-.7.3 0 .7 0 1.2.1.8 0 1.7.1 2.8.1 1 0 2.1 0 3.1-.1l3.1-.1c1.8 0 3.2.5 4.1 1.4.8 1 1.3 2.3 1.3 4.1m-12.8 8.1h.8c4.5 0 7.6-4.6 7.6-8.9 0-1.1-.3-1.9-.8-2.4s-1.4-.8-2.5-.8c-.7 0-1.1 0-1.5.1l-3.6 12zm-6.9 55.9c0 2.1 1.7 3.7 3.7 3.7s3.7-1.6 3.7-3.7-1.7-3.7-3.7-3.7c-2 .1-3.7 1.6-3.7 3.7m3.7 3.1c-1.7 0-3-1.3-3-3.1 0-1.7 1.3-3.1 3-3.1s3 1.3 3 3.1-1.3 3.1-3 3.1m-.7-2.8h.7l1.1 1.8h.7l-1.2-1.9c.6-.1 1.1-.4 1.1-1.2 0-.8-.5-1.2-1.5-1.2h-1.6v4.3h.6v-1.8zm0-.5v-1.3h.9c.5 0 .9.1.9.6 0 .7-.5.7-1 .7h-.8zm-35.9-42.9c1.6 0 2.2.1 2.8.1h.8c.6 0 .9-.1 1.1-.3.1-.1.2-.3.2-.5 0-.8-.9-.9-1.4-.9h-.1c-.6-.1-.9-.2-.9-.6 0-1.1 2.3-9.1 4.1-15.5l1.9-6.9c.2 0 .5-.1 1-.1 1 0 1.9 0 2.3.4.2.2.2.4.2.7 0 .4-.1 1.5-.3 2.4-.1.9-.2 1.6-.2 1.9 0 .3.1.5.2.6.1.1.3.2.4.2.4 0 .8-.5 1-1.5l.4-1.4c.7-2.2 1.3-3.9 1.3-4.4 0-.1 0-.3-.1-.4-.1-.1-.3-.2-.6-.2-1.5 0-3.1 0-4.6.1h-5.4c-1.5 0-3.1-.1-4.5-.1-.3 0-.5.1-.7.2-.2.1-.3.3-.4.4-.3.5-.7 2.2-1.2 4.4l-.3 1.4c-.3 1-.2 1.5.2 1.5.2 0 .4-.1.5-.2.2-.1.4-.3.5-.6.2-.3.5-1.1.8-1.9.4-.9.8-2 1.1-2.4.2-.3.4-.6.6-.7.6-.4 1.6-.4 2.5-.4.6 0 .8 0 1 .1l-1.9 6.9c-1.8 6.4-4 14.4-4.6 15.5-.2.4-.5.5-1.2.6h-.1c-.9.1-1.1.5-1.2.9-.1.2-.1.4-.1.5.1.2.4.3.9.3h.8c.9 0 1.6-.1 3.2-.1m-50.2 32.8h.4c.3 0 .7 0 1-.1.6 0 1.3-.1 2-.1.9 0 1.7.1 2.5.1.5 0 .9 0 1.3.1 1.1 0 1.2-.7 1.2-.9 0-.6-.4-.9-1.3-.9-.7 0-1.1-.1-1.1-.7 0-.2.1-.6.3-1.6l1.1-4.6c.1-.3.2-.7.2-1l.7-.1c.4-.1.9-.1 1.1-.1.1.2.3.8.4 1.1l.5 1.6c.6 1.9 1.1 3.8 1.7 5.8l.1.2c.2.6.3 1.2 1.1 1.2h3.8c.7 0 1.1-.3 1.1-.9 0-.8-.8-.9-1.1-.9-.9-.1-1-.5-1.4-1.5l-.1-.2c-.5-1.7-1.1-3.7-1.7-5.8-.1-.5-.4-1.2-.7-1.6.5-.2 1.1-.5 1.7-.8 1.4-.7 4.6-2.9 4.6-7 0-2.9-1.9-4.6-5-4.6-.9 0-1.7 0-2.5.1-.7 0-1.4.1-2.2.1-.9 0-1.8 0-2.6-.1h-2.1c-1.1 0-1.3.7-1.3 1 0 .5.2.7.4.8.2.1.5.1.7.1h.30000000000000004c.7.1.9.2.9.7 0 .3-.2 1.1-.3 1.6-1.1 4.7-2.3 9.5-3.5 14.2l-.1.4c-.6 2.3-.8 2.7-1.9 2.7-.8 0-1.5.1-1.5 1.1 0 .3.1.5.4.7.5-.1.7-.1.9-.1m12.3-21.5c1.8 0 3 .2 3 2.9 0 2.1-.9 4-2.6 5.3-1.2.9-2.5 1.5-4 1.6h-.5c.1-.5.2-1 .4-1.6l1.8-7.1c.3-1.1.3-1.1 1.9-1.1m10.8 21.8c3.1 0 5.3-2.7 6.2-3.9 0-.1.1-.2.2-.3.4-.6.6-1.1.6-1.4 0-.5-.3-.7-.6-.7-.4 0-.6.3-.8.6-.9 1.4-2.6 2.9-4.1 2.9-1.5 0-2.5-1.3-2.5-3.4v-1c.1 0 .2 0 .3-.1l.4-.1c3.2-.5 9.1-1.4 9.1-6.5 0-2.8-2.5-3.8-4-3.8-4.8 0-9.5 5.7-9.5 11.6-.1 3.6 1.9 6.1 4.7 6.1m4.4-16c.8 0 1.2.5 1.2 1.5 0 .9-.3 2-.8 2.8-.8 1.3-2.7 2.3-5.5 2.8.8-3.5 2.8-7.1 5.1-7.1zm8 16c1.5 0 3-.5 4.1-1.4 1-.9 2-2.5 2-4.1 0-2-1.3-3.5-2.6-4.9l-.1-.1c-1.3-1.4-2.3-2.4-2.3-3.6 0-1.1.7-1.9 1.6-1.9.8 0 1.3.5 2 1.3l.3.4c.5.7.9 1.2 1.4 1.2.6 0 .8-.7 1-1.1 0-.1.1-.2.1-.2.2-.7.3-1.1.3-1.3 0-1.9-4-2-4.2-2-3.2 0-5.7 2.3-5.7 5.4 0 2 1.4 3.5 2.5 4.7l.2.2c1.1 1.1 2 2.2 2 3.5 0 1.2-1 2.1-2 2.1-1.4 0-2.2-1.6-2.8-2.8-.3-.7-.6-1.2-1.2-1.2-.7 0-.9.9-1.1 1.5v.2c-.1.5-.3 1.1-.3 1.4 0 .7.5 1.1.8 1.4 1.1.8 2.7 1.3 4 1.3m9.9 0c1.9 0 4-2.7 4.9-4.1.3-.5 1-1.6 1-2.2 0-.4-.3-.7-.7-.7-.3 0-.5.4-.9 1l-.3.6v.1c-1.1 1.8-1.6 2.1-1.8 2.1 0 0-.1-.1-.1-.4 0-.4.2-1.3.3-1.8l.1-.3c.8-3.1 1.6-6.3 2.3-9.4h2c.3 0 .9 0 1-.6.1-.3.2-.6.2-.8 0-.6-.6-.6-1-.6h-1.8l.2-.7.5-2v-.1c.1-.4.1-.6.1-.8 0-.4-.3-.7-.6-.7h-.9c-.3 0-.8 0-1.1.1-.3 0-.7.2-.9.8l-.9 3.5h-1.4c-.3 0-.7 0-1 .4-.1.2-.2.7-.2.9 0 .6.7.6 1 .6h1.2c-.7 3-1.5 6.1-2.3 9.1l-.1.3c-.3 1.2-.6 2.4-.6 3.4.2 1.3.9 2.3 1.8 2.3m12.8 0c2 0 4.4-1.3 6.1-3.3 1.5-1.8 2.5-4.5 2.5-6.9 0-4.1-2.6-7.4-5.9-7.4-4.3 0-8.4 5-8.4 10.2-.1 3.6 1.9 7.4 5.7 7.4m2.9-15.9c1.9 0 2.2 2.3 2.2 3.7 0 2.3-.7 5.3-1.8 7.4-.7 1.3-1.9 3-3.4 3-2 0-2.3-2.5-2.3-4 0-2 .6-5.1 1.8-7.4.9-1.2 2-2.7 3.5-2.7m8.5 15.5c1.5 0 1.7-.4 2-1.6l.1-.3c.6-2.3 2.3-6.3 3.3-8.2.7-1.5 2-3.6 2.4-3.6v.2c.1.4.3.9.6 1.4.2.2.5.3.9.3 1.2 0 2-1.5 2-2.9s-.8-2.4-2-2.4c-1.9 0-3.6 2.8-5.2 6 .3-1.4.6-2.6.6-3.5 0-1.2-.6-2.6-1.7-2.6-1.3 0-2.8 1.6-3.5 2.5-.4.5-1.7 2.3-1.7 3.1 0 .4.3.7.6.7s.5-.3.7-.5l.1-.1c.1-.2.2-.4.4-.6.1-.2.2-.3.4-.6.6-.9 1.2-1.5 1.3-1.5 0 0 .1.2.1.4 0 .5-.2 1.3-.3 1.9-.8 3.2-1.6 6.3-2.5 9.7v.2c-.1.4-.2.9-.2 1.1 0 .4.2.7.6.8.3.1.6.1.9.1h.1zm14.1.4c3.1 0 5.3-2.7 6.2-3.9 0-.1.1-.2.2-.3.4-.6.6-1.1.6-1.4 0-.4-.2-.7-.6-.7-.4 0-.6.3-.8.6-.8 1.4-2.6 2.9-4.1 2.9-1.5 0-2.5-1.3-2.5-3.4v-1c.1 0 .2 0 .3-.1l.4-.1c3.2-.5 9.1-1.4 9.1-6.5 0-2.8-2.5-3.8-4-3.8-4.8 0-9.5 5.7-9.5 11.6 0 3.6 1.9 6.1 4.7 6.1m4.5-16c.8 0 1.2.5 1.2 1.5 0 .9-.3 2-.8 2.8-.8 1.3-2.7 2.3-5.5 2.8.7-3.5 2.8-7.1 5.1-7.1z"/></g></svg>